<svg width="720" height="244" viewBox="0 0 720 244" fill="none" xmlns="http://www.w3.org/2000/svg">
<path d="M144 0H718.5L699.514 32.25H144V0Z" fill="url(#paint0_linear_1006_137)"/>
<path d="M275.56 243.64C259.438 243.64 245.553 240.195 233.905 233.306C222.328 226.346 213.38 216.58 207.059 204.009C200.809 191.367 197.684 176.559 197.684 159.584C197.684 142.823 200.809 128.05 207.059 115.266C213.38 102.482 222.186 92.5035 233.479 85.3302C244.843 78.157 258.124 74.5703 273.323 74.5703C282.556 74.5703 291.505 76.0973 300.169 79.1513C308.834 82.2052 316.611 86.9993 323.5 93.5334C330.39 100.067 335.823 108.555 339.8 118.995C343.777 129.364 345.766 141.971 345.766 156.815L345.765 168.107H215.688V144.244H314.552C314.552 135.863 312.847 128.441 309.438 121.978C306.029 115.444 301.235 110.295 295.056 106.531C288.948 102.766 281.774 100.884 273.536 100.884C264.587 100.884 256.775 103.086 250.098 107.489C243.493 111.822 238.38 117.504 234.757 124.535C231.206 131.495 229.431 139.059 229.431 147.227V165.87C229.431 176.808 231.348 186.112 235.184 193.782C239.09 201.452 244.523 207.312 251.483 211.36C258.444 215.337 266.576 217.326 275.88 217.326C281.917 217.326 287.421 216.474 292.392 214.769C297.364 212.994 301.661 210.366 305.283 206.886C308.905 203.406 311.675 199.109 313.593 193.995L343.742 199.428C341.327 208.306 336.995 216.083 330.745 222.759C324.566 229.364 316.789 234.513 307.414 238.207C298.11 241.829 287.492 243.64 275.56 243.64Z" fill="url(#paint1_linear_1006_137)"/>
<path d="M462.15 77.8636L447.148 103.432H357.766V77.8636H462.15ZM381.736 38.6591H413.59V193.453C413.59 199.632 414.513 204.284 416.36 207.409C418.206 210.463 420.586 212.558 423.497 213.695C426.48 214.76 429.712 215.293 433.192 215.293C435.749 215.293 437.986 215.115 439.904 214.76C441.821 214.405 443.313 214.121 444.378 213.908L450.131 240.222C448.284 240.932 445.657 241.642 442.247 242.352C438.838 243.133 434.577 243.56 429.463 243.631C421.083 243.773 413.27 242.281 406.026 239.156C398.782 236.031 392.922 231.202 388.448 224.668C383.973 218.134 381.736 209.93 381.736 200.058V38.6591Z" fill="url(#paint2_linear_1006_137)"/>
<path d="M566.52 77.8636L551.513 103.432H462.131V77.8636H566.52ZM486.101 38.6591H517.955V193.453C517.955 199.632 518.878 204.284 520.725 207.409C522.571 210.463 524.951 212.558 527.863 213.695C530.845 214.76 534.077 215.293 537.557 215.293C540.114 215.293 542.351 215.115 544.269 214.76C546.186 214.405 547.678 214.121 548.743 213.908L554.496 240.222C552.649 240.932 550.022 241.642 546.613 242.352C543.203 243.133 538.942 243.56 533.828 243.631C525.448 243.773 517.635 242.281 510.391 239.156C503.147 236.031 497.287 231.202 492.813 224.668C488.338 218.134 486.101 209.93 486.101 200.058V38.6591Z" fill="url(#paint3_linear_1006_137)"/>
<path d="M642.774 243.64C627.434 243.64 614.046 240.124 602.611 233.093C591.176 226.062 582.299 216.225 575.978 203.583C569.657 190.941 566.496 176.168 566.496 159.265C566.496 142.29 569.657 127.447 575.978 114.734C582.299 102.021 591.176 92.1484 602.611 85.1172C614.046 78.0859 627.434 74.5703 642.774 74.5703C658.115 74.5703 671.503 78.0859 682.938 85.1172C694.372 92.1484 703.25 102.021 709.571 114.734C715.892 127.447 719.053 142.29 719.053 159.265C719.053 176.168 715.892 190.941 709.571 203.583C703.25 216.225 694.372 226.062 682.938 233.093C671.503 240.124 658.115 243.64 642.774 243.64ZM642.881 216.9C652.824 216.9 661.063 214.272 667.597 209.016C674.131 203.761 678.961 196.765 682.086 188.029C685.282 179.293 686.88 169.67 686.88 159.158C686.88 148.718 685.282 139.13 682.086 130.394C678.961 121.587 674.131 114.521 667.597 109.194C661.063 103.867 652.824 101.204 642.881 101.204C632.867 101.204 624.557 103.867 617.952 109.194C611.418 114.521 606.553 121.587 603.357 130.394C600.232 139.13 598.669 148.718 598.669 159.158C598.669 169.67 600.232 179.293 603.357 188.029C606.553 196.765 611.418 203.761 617.952 209.016C624.557 214.272 632.867 216.9 642.881 216.9Z" fill="url(#paint4_linear_1006_137)"/>
<path d="M175.5 0V241.5H145.348L34.824 64.3843H32.8067V241.5H0V0H30.3648L140.995 177.352H143.012V0H175.5Z" fill="url(#paint5_linear_1006_137)"/>
<defs>
<linearGradient id="paint0_linear_1006_137" x1="6.87231" y1="238.771" x2="717.872" y2="-0.478522" gradientUnits="userSpaceOnUse">
<stop stop-color="#0F607B"/>
<stop offset="1" stop-color="#6BDC90"/>
</linearGradient>
<linearGradient id="paint1_linear_1006_137" x1="6.87231" y1="238.771" x2="717.872" y2="-0.478522" gradientUnits="userSpaceOnUse">
<stop stop-color="#0F607B"/>
<stop offset="1" stop-color="#6BDC90"/>
</linearGradient>
<linearGradient id="paint2_linear_1006_137" x1="6.87231" y1="238.771" x2="717.872" y2="-0.478522" gradientUnits="userSpaceOnUse">
<stop stop-color="#0F607B"/>
<stop offset="1" stop-color="#6BDC90"/>
</linearGradient>
<linearGradient id="paint3_linear_1006_137" x1="6.87231" y1="238.771" x2="717.872" y2="-0.478522" gradientUnits="userSpaceOnUse">
<stop stop-color="#0F607B"/>
<stop offset="1" stop-color="#6BDC90"/>
</linearGradient>
<linearGradient id="paint4_linear_1006_137" x1="6.87231" y1="238.771" x2="717.872" y2="-0.478522" gradientUnits="userSpaceOnUse">
<stop stop-color="#0F607B"/>
<stop offset="1" stop-color="#6BDC90"/>
</linearGradient>
<linearGradient id="paint5_linear_1006_137" x1="6.87231" y1="238.771" x2="717.872" y2="-0.478522" gradientUnits="userSpaceOnUse">
<stop stop-color="#0F607B"/>
<stop offset="1" stop-color="#6BDC90"/>
</linearGradient>
</defs>
</svg>
