<svg width="346" height="383" viewBox="0 0 346 383" fill="none" xmlns="http://www.w3.org/2000/svg">
<path d="M112.085 54.4024C119.277 35.9821 145.843 36.8505 151.702 55.9225L214.32 259.762L289.919 52.1177C293.698 41.7387 305.175 36.3882 315.554 40.1668C325.933 43.9457 331.284 55.4229 327.505 65.8021L232.525 326.679C225.634 345.605 198.633 344.914 192.719 325.66L130.012 121.534L38.7762 369.65C34.9641 380.017 23.4694 385.331 13.1024 381.519C2.73564 377.706 -2.57767 366.212 1.23424 355.845L111.918 54.8411L112.085 54.4024Z" fill="url(#paint0_linear_1006_32)"/>
<path d="M325.291 1.164C328.291 -1.31581 332.851 0.382217 333.498 4.22049L345.151 73.3095C345.799 77.1478 342.048 80.2475 338.401 78.8891L272.741 54.4366C269.093 53.0782 268.284 48.2803 271.285 45.8005L325.291 1.164Z" fill="url(#paint1_linear_1006_32)"/>
<defs>
<linearGradient id="paint0_linear_1006_32" x1="333.537" y1="49.9327" x2="76.8691" y2="328.169" gradientUnits="userSpaceOnUse">
<stop stop-color="#6BDC90"/>
<stop offset="1" stop-color="#0F607B"/>
</linearGradient>
<linearGradient id="paint1_linear_1006_32" x1="-675.345" y1="641.799" x2="-69.6902" y2="-197.919" gradientUnits="userSpaceOnUse">
<stop stop-color="#6CDD8F"/>
<stop offset="1" stop-color="#66D58F"/>
</linearGradient>
</defs>
</svg>
